<?xml version="1.0" encoding="utf-8"?><svg viewBox="0 0 502.66 502.66" xmlns="http://www.w3.org/2000/svg" xmlns:xlink="http://www.w3.org/1999/xlink"><style>:root>svg{display:none}:root>svg:target{display:block}</style><svg viewBox="0 0 120 120" id="Group_2" xmlns="http://www.w3.org/2000/svg"><path d="M49 77.177V42.474c0-3.195 3.56-5.1 6.219-3.328l24.986 16.657c2.322 1.548 2.385 4.938.123 6.571L55.342 80.42C52.697 82.33 49 80.44 49 77.177z"/><circle cx="60" cy="60" r="58.5"/></svg><svg viewBox="0 0 120 120" id="Play" xmlns="http://www.w3.org/2000/svg"><path d="M49 77.177V42.474c0-3.195 3.56-5.1 6.219-3.328l24.986 16.657c2.322 1.548 2.385 4.938.123 6.571L55.342 80.42C52.697 82.33 49 80.44 49 77.177z"/><circle cx="60" cy="60" r="58.5"/></svg><svg viewBox="0 0 502.664 502.664" id="icon" xmlns="http://www.w3.org/2000/svg"><path d="M153.821 358.226L0 274.337v-46.463l153.821-83.414v54.574L46.636 250.523l107.185 53.431v54.272zm26.273 29.358L282.103 115.08h32.227L212.084 387.584h-31.99zm168.749-29.358v-54.272l107.164-52.999-107.164-52.59v-53.927l153.821 83.522v46.183l-153.821 84.083z"/></svg></svg>